<svg xmlns="http://www.w3.org/2000/svg" viewBox="0 0 287.23 76.95"><defs><style>.cls-1{fill:#09f;}.cls-2{fill:#007bcf;}.cls-3{fill:#ff5c83;}.cls-4{fill:#00e0b9;}.cls-5{fill:#212121;}</style></defs><title>Asset 1</title><g id="Layer_2" data-name="Layer 2"><g id="Layer_1-2" data-name="Layer 1"><polygon class="cls-1" points="28.21 51.3 28.21 25.65 56.43 38.47 28.21 51.3"/><polygon class="cls-2" points="28.21 25.65 28.21 51.3 0 38.47 28.21 25.65"/><polygon class="cls-3" points="28.21 51.3 0 64.12 28.21 76.94 56.43 64.12 56.43 38.47 28.21 51.3"/><polygon class="cls-4" points="28.21 0 0 12.82 0 38.47 28.21 25.65 56.43 12.82 28.21 0"/><path class="cls-5" d="M82.46,41.05h4.26c.56,4.31,2.28,8,9.59,8,4.67,0,8.28-2.74,8.28-6.86s-1.88-5.83-8.78-6.95c-7.62-1.17-12.14-3.55-12.14-10,0-5.58,4.83-9.85,11.68-9.85,7.26,0,11.78,3.56,12.49,10h-4c-.87-4.56-3.5-6.44-8.53-6.44s-7.56,2.49-7.56,5.89c0,3.55,1.32,5.38,8.73,6.49,8.07,1.27,12.33,3.71,12.33,10.56,0,6.09-5.33,10.71-12.54,10.71C86.62,52.57,83.12,47.24,82.46,41.05Z"/><path class="cls-5" d="M114.66,25.57h4.21V30a10.93,10.93,0,0,1,9-4.92c7,0,12.08,5.08,12.08,13.35v.41c0,8.12-4.77,13.7-12.08,13.7a10.07,10.07,0,0,1-9-4.82v13.6h-4.21Zm20.92,13.5v-.41c0-6.7-3.71-10-8.18-10-4.92,0-8.68,3.25-8.68,10v.41c0,6.8,3.56,10,8.74,10S135.58,45.52,135.58,39.07Z"/><path class="cls-5" d="M143.79,44.75c0-6.14,6.49-8.22,13.3-8.22h3.8V34.6c0-4.21-1.62-6-5.68-6-3.66,0-5.69,1.53-6.09,4.77H144.9c.56-6,5.38-8.27,10.51-8.27s9.7,2.08,9.7,9.49V52.12h-4.22V48.76c-2,2.49-4.36,3.81-8.27,3.81C147.69,52.57,143.79,50.19,143.79,44.75Zm17.1-1.92v-3.3h-3.65c-5.33,0-9.24,1.32-9.24,5.22,0,2.74,1.32,4.47,5,4.47C157.49,49.22,160.89,46.94,160.89,42.83Z"/><path class="cls-5" d="M172.86,25.57h4.21v4.77c1.68-3,4-5.08,8.73-5.23v4c-5.32.25-8.73,1.93-8.73,8.48V52.12h-4.21Z"/><path class="cls-5" d="M190.92,12.88h4.22V37.8l11-12.23h4.92L199.7,37.9,212,52.12h-5.13L195.14,38.36V52.12h-4.22Z"/><path class="cls-5" d="M238.57,15.82h5.79l12.28,36.3h-4.37l-3.54-10.46h-15l-3.5,10.46h-4.17ZM235,38.16h12.58l-6.29-18.68Z"/><path class="cls-5" d="M261.5,15.82h10.91c7,0,12.69,2.85,12.69,10.1v.21c0,6-4,8.93-9,9.89l11.12,16.1h-4.92L271.5,36.33h-5.59V52.12H261.5Zm11.21,17c5.18,0,8-2.24,8-6.7v-.21c0-4.92-3.05-6.55-8-6.55h-6.8V32.83Z"/></g></g></svg>